<svg viewBox="0 0 100 100" xml:space="preserve" xmlns:xlink="http://www.w3.org/1999/xlink" xmlns="http://www.w3.org/2000/svg">
                    <g style="mix-blend-mode: normal" text-anchor="none" font-size="none" font-weight="none" font-family="none" stroke-dashoffset="0" stroke-dasharray="" stroke-miterlimit="10" stroke-linejoin="miter" stroke-linecap="butt" stroke-width="1" stroke="none" fill-rule="nonzero" fill="none" data-paper-data="{&quot;selected&quot;:false}"><path fill="#06c6fc" data-paper-data="{&quot;guideItem&quot;:null,&quot;selected&quot;:false}" d="M89.71133,27.30819c0.8393,0 1.65153,0.10404 2.46376,0.27745c2.62621,0.62426 4.60263,2.7745 5.87513,6.34666c1.40787,3.98834 1.84105,9.60669 1.24542,15.81463c-0.56856,5.89581 -2.05765,11.79161 -4.08823,16.16144c-2.32839,5.09814 -7.03933,14.80887 -12.15637,22.57747c-5.63146,8.53157 -10.04457,12.10374 -13.07689,10.54308c-0.70393,-0.34681 -1.16419,-0.93639 -1.40787,-1.80342c-1.11005,-3.67621 1.92228,-11.47948 5.44193,-20.49659c3.27599,-8.39285 6.98518,-17.93018 7.60788,-25.35197c0,-0.03468 -0.02708,-0.10404 -0.05415,-0.10404c-0.05415,0 -6.28124,-1.1098 -9.85505,1.1098c-0.43319,0.27745 -0.78516,0.27745 -1.0559,0c-1.78691,-1.73406 -0.21659,-13.35227 -0.1083,-14.04589c0.48734,-0.48553 10.15287,-11.02862 19.16862,-11.02862z"></path><path fill="#ffffff" data-paper-data="{&quot;guideItem&quot;:null,&quot;selected&quot;:false}" d="M81.56197,51.34227c0,0 1.43494,-0.86703 6.30832,3.15599c0,0 -3.30307,21.53703 -10.17994,25.03983c0,0 -2.22009,0.31213 -3.65503,-2.73982c0,0 4.73801,-12.41587 5.65853,-15.88399z"></path><path fill="#000000" d="M71.43617,100c3.0594,0 7.06639,-3.71089 11.93978,-11.09798c5.14412,-7.80327 9.85505,-17.54869 12.21052,-22.64682c2.03058,-4.43919 3.54673,-10.40436 4.14237,-16.36953c0.62271,-6.34666 0.16245,-12.06906 -1.27249,-16.12676c-1.32664,-3.74557 -3.41137,-5.99985 -6.20002,-6.65879c-0.81223,-0.20808 -1.67861,-0.27745 -2.54498,-0.27745c-9.20527,0 -19.03324,10.75117 -19.43936,11.20203l-0.1083,0.13872l-0.02708,0.20808c-0.40612,2.98258 -1.59738,12.79737 0.27074,14.60079c0.29782,0.27745 0.78516,0.52022 1.51616,0.06936c2.97818,-1.8381 7.9057,-1.31788 9.23234,-1.1098c-0.73101,7.24837 -4.33189,16.54293 -7.52666,24.7277c-3.54673,9.12116 -6.63321,17.02847 -5.44193,20.91277c0.29782,1.00576 0.8393,1.69938 1.65153,2.11555c0.48734,0.17341 1.02883,0.31213 1.59738,0.31213zM89.71133,27.86309c0.81223,0 1.62446,0.10404 2.38254,0.27745c2.49083,0.58958 4.35897,2.63577 5.57731,6.03453c1.38079,3.88429 1.81398,9.39861 1.21834,15.53718c-0.56856,5.82644 -2.03058,11.65288 -4.007,15.95336c-2.32839,5.06346 -7.01225,14.73952 -12.12929,22.5081c-5.41486,8.21945 -9.77383,11.82629 -12.58956,10.40436c-0.59563,-0.31213 -0.9476,-0.76298 -1.16419,-1.45661c-1.02883,-3.46812 2.1118,-11.51416 5.41486,-20.04574c3.27599,-8.46222 7.01225,-18.03422 7.66203,-25.56005c0.02708,-0.34681 -0.16245,-0.65894 -0.43319,-0.72831c-0.05415,0 -6.41661,-1.14448 -10.09872,1.17916c-0.40612,0.24277 -0.54148,0.10404 -0.62271,0.06936c-1.02883,-1.00576 -0.75808,-7.5605 0.02708,-13.31758c1.19127,-1.31788 10.28824,-10.85522 18.7625,-10.85522z"></path><path fill="#000000" data-paper-data="{&quot;guideItem&quot;:null,&quot;selected&quot;:false}" d="M87.62661,55.01848c0.1083,0 0.21659,-0.03468 0.29782,-0.13872c0.18952,-0.20808 0.18952,-0.5549 0.02708,-0.79767c-1.81398,-2.56641 -6.49783,-3.36407 -6.71443,-3.36407c-0.24367,-0.03468 -0.46027,0.17341 -0.48734,0.48553c-0.02708,0.31213 0.13538,0.58958 0.37904,0.62426c0.05415,0 4.57556,0.76298 6.17294,3.01727c0.08123,0.13872 0.21659,0.17341 0.32489,0.17341z"></path></g><g style="mix-blend-mode: normal" text-anchor="none" font-size="none" font-weight="none" font-family="none" stroke-dashoffset="0" stroke-dasharray="" stroke-miterlimit="10" stroke-linejoin="miter" stroke-linecap="butt" stroke-width="1" stroke="none" fill-rule="nonzero" fill="none" data-paper-data="{&quot;selected&quot;:false}"><g><path fill="#06c6fc" data-paper-data="{&quot;guideItem&quot;:null,&quot;selected&quot;:false}" d="M26.16791,59.42299c0,0 -0.02708,-5.20218 -3.11355,-4.78601c-3.11355,0.45086 -3.65503,7.17901 0.75808,10.57777c4.41312,3.39876 2.35547,-5.79176 2.35547,-5.79176z"></path><path fill="#000000" d="M25.43691,66.56732c0.35197,0 0.64978,-0.13872 0.89345,-0.38149c1.35372,-1.35257 0.48734,-5.79176 0.27074,-6.8322c0,-0.48553 -0.13538,-3.01727 -1.32664,-4.40452c-0.59563,-0.69362 -1.35372,-0.97107 -2.27424,-0.83235c-1.35372,0.20808 -2.40962,1.49129 -2.73451,3.36407c-0.43319,2.49705 0.43319,6.03453 3.30307,8.25412c0.73101,0.5549 1.35372,0.83235 1.86813,0.83235zM23.40634,55.19189c0.51441,0 0.92053,0.20808 1.27249,0.58958c1.02883,1.14448 1.02883,3.64152 1.02883,3.67621c0,0.03468 0,0.10404 0.02708,0.13872c0.43319,1.97682 0.75808,5.02877 0.05415,5.7224c-0.29782,0.31213 -0.9476,0.10404 -1.78691,-0.52022c-2.51791,-1.94215 -3.27599,-4.92473 -2.89695,-7.04028c0.24367,-1.42193 0.97468,-2.35832 1.97643,-2.49705c0.13538,-0.06936 0.24367,-0.06936 0.32489,-0.06936zM26.16791,59.42299z"></path></g><path fill="#06c6fc" data-paper-data="{&quot;guideItem&quot;:null,&quot;selected&quot;:false}" d="M51.88852,70.41693c-0.02708,0 -0.05415,0 -0.05415,0.03468c-0.05415,0.06936 -4.71093,7.942 -8.8533,11.27139c-0.02708,0.03468 -0.02708,0.06936 -0.02708,0.10404c0,0.06936 0.54148,5.93048 -1.02883,8.18477c-0.40612,0.58958 -0.92053,0.90171 -1.54323,0.90171c-0.62271,0 -1.19127,-0.31213 -1.65153,-0.90171c-1.73276,-2.25427 -1.67861,-7.97667 -1.67861,-8.04604c0,-0.03468 -0.02708,-0.06936 -0.02708,-0.06936c-0.05415,-0.03468 -5.19827,-3.39876 -7.03933,-5.61836c-0.02708,-0.03468 -0.02708,-0.03468 -0.05415,-0.03468c-0.02708,0 -0.02708,0 -0.05415,0.03468c-0.05415,0.06936 -4.41312,6.8322 -7.06639,5.20218c-0.43319,-0.24277 -0.67686,-0.65894 -0.78516,-1.24852c-0.46027,-2.60109 2.76158,-7.62987 2.78865,-7.66455c0.02708,-0.03468 0.02708,-0.06936 0,-0.10404c-0.02708,-0.06936 -3.22184,-5.58367 1.43494,-12.83205c4.76508,-7.42177 11.96684,-15.25973 15.73018,-17.09783c0.02708,0 0.02708,-0.03468 0.05415,-0.06936c0,-0.03468 0,-0.03468 0,-0.06936l-6.17294,-15.53718c0,-0.03468 -0.02708,-0.03468 -0.05415,-0.03468c-0.02708,0 -0.05415,0 -0.05415,0.03468c-0.18952,0.24277 -19.57473,23.063 -22.74243,36.48463c-1.8952,8.08072 -4.30482,12.728 -6.57906,12.728v0c-1.97643,0 -3.84455,-3.57217 -5.41486,-10.30032c-2.57206,-11.16735 3.65503,-37.87187 14.59305,-53.09693c6.8498,-9.53733 14.62013,-13.52567 22.49875,-11.4448c0.05415,0 3.76333,0.76298 7.68911,4.43919c3.62796,3.39876 8.17644,10.09223 9.28649,22.54278c0,0.03468 0.02708,0.06936 0.08123,0.06936c0.02708,0 3.97993,0.06936 8.14937,1.6647c3.81748,1.45661 8.58256,4.50856 9.63846,10.78586c0.70393,4.19642 0.89345,7.31773 1.02883,9.81478c0.29782,4.78601 0.40612,6.97092 3.70918,9.29457c-0.24367,0.45086 -1.48908,2.67045 -4.19652,4.43919c-2.76158,1.80342 -7.68911,3.46812 -15.26991,1.1098c-0.02708,0 -0.05415,0 -0.05415,0.03468c-0.02708,0.03468 -0.02708,0.03468 -0.02708,0.06936c0,0.10404 0.92053,8.87839 -0.9476,11.68757c-0.35197,0.5549 -0.78516,0.83235 -1.29957,0.83235c-1.46202,0.06936 -2.57206,-1.17916 -3.24892,-3.64152c-0.51441,-1.8381 -0.59563,-3.74557 -0.59563,-3.78025c-0.08123,-0.13872 -0.1083,-0.17341 -0.16245,-0.17341c0.02708,0 0.02708,0 0,0z"></path><path fill="#ffffff" data-paper-data="{&quot;guideItem&quot;:null,&quot;selected&quot;:false}" d="M35.69807,26.78797c0.21659,-0.38149 0.8393,-0.72831 1.13713,-1.00576c0.43319,-0.41617 0.86638,-0.83235 1.32664,-1.24852c0.56856,-0.52022 1.16419,-1.04043 1.78691,-1.45661c0.64978,-0.41617 0.97468,-0.69362 1.32664,0.20808c0.37904,1.00576 0.78516,2.04619 1.16419,3.05195c0.81223,2.08087 1.62446,4.23111 2.32839,6.41602c0.18952,0.5549 1.8952,5.37558 1.46202,5.79176l-4.27774,3.95366z"></path><path fill="#ffffff" data-paper-data="{&quot;guideItem&quot;:null,&quot;selected&quot;:false}" d="M58.06146,65.35348c0,0 -6.98518,-3.08662 -11.58781,-11.9997c0,0 -10.91095,3.57217 -21.7136,19.03998c0,0 -4.38604,6.65879 -2.0035,9.01712c0,0 2.0035,2.11555 7.06639,-5.20218c0,0 5.00875,4.30047 7.14762,5.61836c0,0 -0.05415,8.46222 3.38429,9.01712c0,0 3.35722,0.24277 2.59913,-9.15584c0,0 6.9581,-7.45646 8.9616,-11.23671c0,0 0.18952,6.34666 3.24892,7.35242c0,0 4.03408,1.28321 2.97818,-10.99394z"></path><path fill="#000000" d="M40.38193,91.43374c0.73101,0 1.38079,-0.38149 1.86813,-1.07512c1.48908,-2.18492 1.24542,-7.07497 1.13713,-8.32349c3.33014,-2.7745 6.87688,-8.21945 8.23059,-10.36968c0.08123,0.76298 0.24367,1.76874 0.51441,2.7745c0.9476,3.39876 2.51791,4.0577 3.68211,3.98834c0.62271,-0.03468 1.19127,-0.38149 1.62446,-1.04043c1.67861,-2.53172 1.27249,-9.29457 1.08298,-11.4448c7.44543,2.18492 12.29174,0.52022 15.08039,-1.28321c2.81573,-1.8381 4.11529,-4.16174 4.35897,-4.64728l0.27074,-0.52022l-0.40612,-0.27745c-3.08648,-2.15023 -3.19477,-4.12707 -3.46551,-8.84371c-0.16245,-2.53172 -0.32489,-5.65303 -1.0559,-9.88414c-1.08298,-6.55475 -6.0105,-9.71074 -9.93628,-11.20203c-3.54673,-1.35257 -6.90395,-1.59533 -7.93278,-1.6647c-1.19127,-12.41587 -5.76683,-19.10934 -9.42186,-22.54278c-4.007,-3.78025 -7.85155,-4.54324 -7.87863,-4.54324c-8.014,-2.08087 -15.91969,1.94215 -22.87779,11.61821c-5.0629,7.07497 -9.58431,17.37528 -12.42711,28.26518c-2.68036,10.30032 -3.51966,19.76829 -2.24717,25.35197c1.62446,7.10965 3.57381,10.71649 5.82098,10.71649c2.51791,0 5.00875,-4.64728 7.01225,-13.1095c2.89695,-12.27715 19.62888,-32.6697 22.25508,-35.82569l5.76683,14.53142c-3.8987,2.18492 -10.88388,9.81478 -15.54066,17.09783c-4.22359,6.58943 -2.22009,11.89566 -1.59738,13.21354c-0.67686,1.1098 -3.14062,5.34091 -2.70743,7.87263c0.13538,0.72831 0.48734,1.28321 1.00175,1.59533c0.35197,0.20808 0.70393,0.31213 1.08298,0.31213c2.46376,0 5.38779,-4.02302 6.25417,-5.30622c1.84105,2.01151 5.73975,4.64728 6.66028,5.27154c0,1.24852 0.16245,5.99985 1.81398,8.15008c0.56856,0.79767 1.21834,1.14448 1.97643,1.14448zM51.88852,69.86203c-0.16245,0 -0.29782,0.10404 -0.40612,0.27745c-0.05415,0.06936 -4.68386,7.87263 -8.71793,11.13267c-0.16245,0.13872 -0.24367,0.38149 -0.24367,0.62426c0.13538,1.56066 0.27074,6.03453 -0.92053,7.73391c-0.32489,0.48553 -0.73101,0.69362 -1.21834,0.69362c-0.51441,0 -0.97468,-0.24277 -1.35372,-0.76298c-1.59738,-2.08087 -1.57031,-7.59518 -1.57031,-7.62987c0,-0.24277 -0.1083,-0.48553 -0.27074,-0.58958c-0.21659,-0.13872 -5.17119,-3.39876 -6.93103,-5.54899c-0.1083,-0.13872 -0.24367,-0.20808 -0.40612,-0.17341c-0.13538,0.03468 -0.24367,0.10404 -0.32489,0.24277c-1.16419,1.80342 -4.60263,6.24262 -6.55198,5.06346c-0.29782,-0.17341 -0.48734,-0.45086 -0.54148,-0.86703c-0.32489,-1.94215 1.84105,-5.86112 2.70743,-7.17901c0.16245,-0.24277 0.16245,-0.5549 0,-0.79767c-0.1083,-0.20808 -2.97818,-5.30622 1.43494,-12.13842c4.73801,-7.35242 11.85855,-15.12101 15.56773,-16.95911c0.13538,-0.06936 0.24367,-0.20808 0.29782,-0.38149c0.05415,-0.17341 0.05415,-0.34681 -0.02708,-0.52022l-6.17294,-15.53718c-0.08123,-0.17341 -0.21659,-0.31213 -0.35197,-0.34681c-0.16245,-0.03468 -0.32489,0.03468 -0.43319,0.13872c-0.18952,0.24277 -19.65595,23.20172 -22.85072,36.7274c-1.81398,7.69922 -4.11529,12.31182 -6.17294,12.31182c-1.75983,0 -3.51966,-3.53748 -4.98168,-9.91882c-2.54498,-11.02862 3.65503,-37.45571 14.48476,-52.57671c6.7415,-9.39861 14.37646,-13.2829 22.09264,-11.27139c0.05415,0 3.70918,0.76298 7.52666,4.36983c3.57381,3.3294 8.04107,9.88414 9.12404,22.16129c0.02708,0.31213 0.24367,0.5549 0.48734,0.58958c0.02708,0 3.95285,0.06936 8.014,1.63002c3.70918,1.38725 8.33889,4.33515 9.34064,10.36968c0.70393,4.16174 0.86638,7.24837 1.02883,9.74542c0.27074,4.64728 0.43319,7.07497 3.49258,9.43329c-0.51441,0.83235 -1.70568,2.42768 -3.76333,3.78025c-2.70743,1.76874 -7.49958,3.36407 -14.97209,1.04043c-0.16245,-0.03468 -0.32489,0 -0.46027,0.13872c-0.13538,0.13872 -0.18952,0.34681 -0.16245,0.5549c0.24367,2.393 0.59563,9.08647 -0.8393,11.27139c-0.27074,0.41617 -0.59563,0.62426 -1.00175,0.65894c-1.27249,0.06936 -2.22009,-1.04043 -2.8428,-3.26003c-0.48734,-1.76874 -0.56856,-3.60684 -0.56856,-3.60684c0,-0.27745 -0.16245,-0.52022 -0.35197,-0.58958l-0.05415,-0.03468zM36.80812,82.34727zM43.22473,82.17386zM24.43516,72.74057zM52.18633,70.76374zM51.53655,70.52098zM58.49465,65.28411zM41.60027,42.6026zM35.42733,27.06542z"></path><path fill="#000000" data-paper-data="{&quot;guideItem&quot;:null,&quot;selected&quot;:false}" d="M54.51472,35.35423c0.18952,0 0.35197,-0.17341 0.40612,-0.41617c0.67686,-3.01727 0.64978,-6.8322 0.64978,-6.97092c0,-0.31213 -0.18952,-0.5549 -0.43319,-0.5549v0c-0.24367,0 -0.43319,0.24277 -0.43319,0.5549c0,0.03468 0.02708,3.81493 -0.59563,6.65879c-0.05415,0.27745 0.05415,0.58958 0.29782,0.69362c0.02708,0.03468 0.05415,0.03468 0.1083,0.03468z"></path><path fill="#000000" data-paper-data="{&quot;guideItem&quot;:null,&quot;selected&quot;:false}" d="M35.75222,27.30819c0.1083,0 0.21659,-0.03468 0.29782,-0.13872c0.8393,-0.97107 2.40962,-2.60109 3.0594,-2.73982c0.24367,-0.03468 0.40612,-0.34681 0.35197,-0.62426c-0.02708,-0.31213 -0.27074,-0.52022 -0.48734,-0.45086c-1.13713,0.24277 -3.27599,2.73982 -3.51966,3.01727c-0.16245,0.20808 -0.18952,0.5549 -0.02708,0.79767c0.1083,0.10404 0.21659,0.13872 0.32489,0.13872z"></path><g><path fill="#06c6fc" data-paper-data="{&quot;guideItem&quot;:null,&quot;selected&quot;:false}" d="M42.49373,55.46933c0,0 0.02708,13.1095 -3.43844,13.24822c-3.46551,0.13872 -3.7904,-7.942 -3.27599,-13.8378"></path><path fill="#000000" data-paper-data="{&quot;guideItem&quot;:null,&quot;selected&quot;:false}" d="M38.947,69.27245c0.02708,0 0.08123,0 0.1083,0c3.76333,-0.17341 3.84455,-12.41587 3.84455,-13.80312c0,-0.31213 -0.18952,-0.5549 -0.43319,-0.5549v0c-0.24367,0 -0.43319,0.24277 -0.43319,0.5549c0,3.26003 -0.54148,12.58927 -3.00525,12.69332c-0.62271,0.03468 -1.11005,-0.24277 -1.54323,-0.83235c-1.57031,-2.15023 -1.70568,-7.80327 -1.29957,-12.38119c0.02708,-0.31213 -0.13538,-0.58958 -0.37904,-0.62426c-0.24367,-0.03468 -0.46027,0.17341 -0.48734,0.48553c-0.21659,2.32364 -0.70393,10.19627 1.51616,13.24822c0.59563,0.83235 1.29957,1.21384 2.1118,1.21384z"></path></g><path fill="#000000" data-paper-data="{&quot;guideItem&quot;:null,&quot;selected&quot;:false}" d="M58.14268,65.80433c0.18952,0 0.35197,-0.13872 0.40612,-0.38149c0.08123,-0.27745 -0.05415,-0.58958 -0.27074,-0.69362c-0.08123,-0.03468 -8.31182,-3.78025 -10.99217,-11.79161c-0.08123,-0.27745 -0.35197,-0.41617 -0.56856,-0.27745c-0.21659,0.10404 -0.32489,0.45086 -0.21659,0.72831c1.48908,4.43919 4.54848,7.59518 6.8498,9.43329c2.46376,1.97682 4.57556,2.9479 4.65678,2.98258c0.02708,0 0.08123,0 0.13538,0z"></path><g><circle fill="#000000" data-paper-data="{&quot;guideItem&quot;:null,&quot;selected&quot;:false}" r="12.7" transform="rotate(-180) scale(0.27074,-0.34681) skewX(0)" cy="129.0406" cx="-213.9522"></circle><circle fill="#ffffff" data-paper-data="{&quot;guideItem&quot;:null,&quot;selected&quot;:false}" r="4.4" transform="rotate(-180) scale(0.27074,-0.34681) skewX(0)" cy="129.0406" cx="-219.3522"></circle></g><g><path fill="#000000" data-paper-data="{&quot;guideItem&quot;:null,&quot;selected&quot;:false}" d="M73.81871,52.10525c-2.08473,0.34681 -3.76333,-1.42193 -4.007,-3.74557c-0.27074,-2.63577 1.38079,-4.85537 3.22184,-4.85537"></path><path fill="#ffffff" data-paper-data="{&quot;guideItem&quot;:null,&quot;selected&quot;:false}" d="M73.41259,47.70074c-0.62271,0.10404 -1.16419,-0.45086 -1.24542,-1.24852c-0.08123,-0.79767 0.35197,-1.49129 0.97468,-1.59533"></path></g></g>
               </svg>